HIERARCHY
ROOT Hips
{
	OFFSET 0.00 0.00 0.00
	CHANNELS 6 Xposition Yposition Zposition Xrotation Yrotation Zrotation
	JOINT Spine
	{
		OFFSET 0.00000 2.10617 3.15926
		CHANNELS 3 Xrotation Yrotation Zrotation
		JOINT Spine1
		{
			OFFSET 0.00000 0.73147 4.14835
			CHANNELS 3 Xrotation Yrotation Zrotation
			JOINT Spine2
			{
				OFFSET 0.00000 0.36713 4.19631
				CHANNELS 3 Xrotation Yrotation Zrotation
				JOINT Spine3
				{
					OFFSET 0.00000 0.00000 4.21234
					CHANNELS 3 Xrotation Yrotation Zrotation
					JOINT Neck
					{
						OFFSET 0.00000 -1.57962 11.05740
						CHANNELS 3 Xrotation Yrotation Zrotation
						JOINT Head
						{
							OFFSET 0.00000 -1.00576 5.70398
							CHANNELS 3 Xrotation Yrotation Zrotation
							End Site
							{
								OFFSET 0.00000 0.00001 6.81873
							}
						}
					}
					JOINT RightShoulder
					{
						OFFSET -1.28113 -2.13521 6.91810
						CHANNELS 3 Xrotation Yrotation Zrotation
						JOINT RightArm
						{
							OFFSET -6.36294 0.00000 0.00000
							CHANNELS 3 Xrotation Yrotation Zrotation
							JOINT RightForeArm
							{
								OFFSET -10.12221 0.00000 0.00000
								CHANNELS 3 Xrotation Yrotation Zrotation
								JOINT RightHand
								{
									OFFSET -10.76713 0.00000 0.00000
									CHANNELS 3 Xrotation Yrotation Zrotation
									JOINT RightHandEnd
									{
										OFFSET -2.78915 0.00000 0.00000
										CHANNELS 3 Xrotation Yrotation Zrotation
										End Site
										{
											OFFSET -2.78915 0.00000 0.00000
										}
									}
									JOINT RightHandThumb1
									{
										OFFSET -1.11566 -1.85944 -0.74377
										CHANNELS 3 Yrotation Xrotation Zrotation
										End Site
										{
											OFFSET -2.69412 -0.72189 0.00000
										}
									}
								}
							}
						}
					}
					JOINT LeftShoulder
					{
						OFFSET 1.28113 -2.13521 6.91810
						CHANNELS 3 Xrotation Yrotation Zrotation
						JOINT LeftArm
						{
							OFFSET 6.36294 0.00000 0.00000
							CHANNELS 3 Xrotation Yrotation Zrotation
							JOINT LeftForeArm
							{
								OFFSET 10.12221 0.00000 0.00000
								CHANNELS 3 Xrotation Yrotation Zrotation
								JOINT LeftHand
								{
									OFFSET 10.76713 0.00000 0.00000
									CHANNELS 3 Xrotation Yrotation Zrotation
									JOINT LeftHandEnd
									{
										OFFSET 2.78915 0.00000 0.00000
										CHANNELS 3 Xrotation Yrotation Zrotation
										End Site
										{
											OFFSET 2.78915 0.00000 0.00000
										}
									}
									JOINT LeftHandThumb1
									{
										OFFSET 1.11566 -1.85944 -0.74377
										CHANNELS 3 Yrotation Xrotation Zrotation
										End Site
										{
											OFFSET 2.69412 -0.72189 0.00000
										}
									}
								}
							}
						}
					}
				}
			}
		}
	}
	JOINT RightUpLeg
	{
		OFFSET -3.80068 0.00000 -1.11031
		CHANNELS 3 Xrotation Yrotation Zrotation
		JOINT RightLeg
		{
			OFFSET 0.00001 0.00000 -17.00167
			CHANNELS 3 Xrotation Yrotation Zrotation
			JOINT RightFoot
			{
				OFFSET 0.00001 0.00000 -17.96841
				CHANNELS 3 Xrotation Yrotation Zrotation
				JOINT RightToeBase
				{
					OFFSET 0.00000 -5.07501 -1.84715
					CHANNELS 3 Xrotation Yrotation Zrotation
					End Site
					{
						OFFSET 0.00000 -3.07471 -0.00000
					}
				}
			}
		}
	}
	JOINT LeftUpLeg
	{
		OFFSET 3.80068 0.00000 -1.11031
		CHANNELS 3 Xrotation Yrotation Zrotation
		JOINT LeftLeg
		{
			OFFSET 0.00001 0.00000 -17.00167
			CHANNELS 3 Xrotation Yrotation Zrotation
			JOINT LeftFoot
			{
				OFFSET 0.00001 0.00000 -17.96841
				CHANNELS 3 Xrotation Yrotation Zrotation
				JOINT LeftToeBase
				{
					OFFSET 0.00000 -5.07501 -1.84715
					CHANNELS 3 Xrotation Yrotation Zrotation
					End Site
					{
						OFFSET 0.00000 -3.07471 -0.00000
					}
				}
			}
		}
	}
}
MOTION
Frames: 14
Frame Time: 0.008342
 7.6538 -6.9446 9.4187 -5.8657 -82.5737 -100.5982 -4.7834 -2.4990 0.3541 -2.8919 -1.8481 -0.0143 8.7511 0.1666 1.3871 4.1827 0.2705 0.7759 26.5317 3.4074 -1.8744 0.7428 -2.6982 6.1497 -6.7049 -5.7481 17.7292 -35.8588 -51.5923 20.5322 -0.0001 0.0001 102.3261 67.7335 13.0065 -17.8411 -0.0000 -0.0000 -0.0000 0.0000 -0.0000 -0.0000 -6.4034 10.7560 -17.1918 -15.7640 51.7165 -46.0372 -0.0001 -0.0001 -100.0537 71.9840 -10.5563 29.9125 0.0000 0.0000 -0.0000 0.0000 0.0000 0.0000 -7.4518 -6.1326 12.6462 19.1001 0.0000 0.0000 -28.7435 7.9801 -19.9696 -44.1231 0.0000 -0.0000 -6.7210 0.5498 -16.2654 18.5519 0.0000 0.0000 -32.2475 21.9238 14.0927 -61.8496 0.0000 -0.0000
 7.6449 -6.9474 9.4402 -5.9908 -82.6312 -100.6685 -4.7676 -2.5011 0.3552 -2.8765 -1.8385 -0.0121 8.7126 0.1672 1.3736 4.1886 0.2770 0.7715 26.5766 3.3891 -1.9077 0.7713 -2.7073 6.1680 -6.6857 -5.7498 17.6946 -35.8949 -51.5965 20.5154 -0.0001 0.0001 102.3936 67.7698 13.0182 -17.8523 -0.0000 0.0000 -0.0000 -0.0000 -0.0000 -0.0000 -6.3841 10.7412 -17.2306 -15.7795 51.7215 -46.0253 -0.0001 -0.0001 -100.1206 71.9722 -10.5529 29.8926 -0.0000 -0.0000 -0.0000 0.0000 -0.0000 0.0000 -7.5258 -6.1323 12.6146 19.0617 0.0000 0.0000 -28.6170 8.0689 -20.0465 -43.9981 0.0000 -0.0000 -6.8129 0.5539 -16.2985 18.5315 0.0000 0.0000 -32.1173 21.9620 14.0594 -61.8165 0.0000 -0.0000
 7.6360 -6.9496 9.4618 -6.1258 -82.7056 -100.7372 -4.7685 -2.4964 0.3512 -2.8626 -1.8245 -0.0125 8.6747 0.1561 1.3516 4.1925 0.2770 0.7744 26.6215 3.3794 -1.9485 0.7993 -2.7181 6.1824 -6.6563 -5.7436 17.6556 -35.9298 -51.6044 20.5079 -0.0001 0.0001 102.4621 67.8088 13.0336 -17.8662 -0.0000 -0.0000 -0.0000 -0.0000 -0.0000 0.0000 -6.3614 10.7355 -17.2662 -15.7903 51.7237 -46.0169 -0.0001 -0.0001 -100.1903 72.0342 -10.5188 29.8914 0.0000 -0.0000 -0.0000 -0.0000 0.0000 0.0000 -7.6193 -6.1349 12.5803 19.0282 0.0000 0.0000 -28.4874 8.1644 -20.1251 -43.8831 0.0000 -0.0000 -6.9312 0.5598 -16.3406 18.5275 0.0000 0.0000 -31.9901 21.9986 14.0303 -61.7929 0.0000 -0.0000
 7.6260 -6.9502 9.4797 -6.1653 -82.7515 -100.7134 -4.7441 -2.4895 0.3538 -2.8461 -1.8050 -0.0075 8.6349 0.1294 1.3136 4.1947 0.2735 0.7765 26.6670 3.3760 -1.9902 0.8217 -2.7282 6.1958 -6.6314 -5.7310 17.6266 -35.9657 -51.6182 20.4826 -0.0001 0.0001 102.5389 67.8430 13.0429 -17.8714 -0.0000 0.0000 -0.0000 -0.0000 -0.0000 0.0000 -6.3372 10.7259 -17.2841 -15.7878 51.7373 -46.0206 -0.0001 -0.0001 -100.2610 72.1705 -10.4533 29.9082 -0.0000 0.0000 0.0000 0.0000 -0.0000 0.0000 -7.6654 -6.1467 12.5678 18.9776 0.0000 0.0000 -28.3491 8.2695 -20.2138 -43.7811 0.0000 -0.0000 -7.0077 0.5565 -16.3793 18.5166 0.0000 0.0000 -31.8676 22.0333 14.0036 -61.7756 0.0000 -0.0000
 7.6162 -6.9501 9.4969 -6.2048 -82.8074 -100.6805 -4.7299 -2.4751 0.3519 -2.8320 -1.7824 -0.0057 8.5967 0.0918 1.2693 4.1953 0.2629 0.7867 26.7114 3.3804 -2.0376 0.8405 -2.7406 6.2057 -6.5974 -5.7076 17.5900 -35.9999 -51.6394 20.4682 -0.0001 0.0001 102.6148 67.8796 13.0556 -17.8779 -0.0000 -0.0000 -0.0000 -0.0000 -0.0000 0.0000 -6.3097 10.7231 -17.2993 -15.7805 51.7513 -46.0285 -0.0001 -0.0001 -100.3347 72.3692 -10.3628 29.9429 0.0000 0.0000 0.0000 0.0000 0.0000 0.0000 -7.7209 -6.1607 12.5562 18.9282 0.0000 0.0000 -28.2115 8.3765 -20.3040 -43.6895 0.0000 -0.0000 -7.0992 0.5537 -16.4263 18.5163 0.0000 0.0000 -31.7497 22.0671 13.9794 -61.7672 0.0000 -0.0000
 7.6065 -6.9492 9.5137 -6.2328 -82.8738 -100.6325 -4.7275 -2.4560 0.3490 -2.8197 -1.7569 -0.0040 8.5617 0.0437 1.2174 4.1945 0.2475 0.8011 26.7536 3.3901 -2.0879 0.8550 -2.7546 6.2150 -6.5613 -5.6790 17.5528 -36.0321 -51.6641 20.4559 -0.0001 0.0001 102.6926 67.9136 13.0664 -17.8813 0.0000 0.0000 -0.0000 -0.0000 0.0000 -0.0000 -6.2812 10.7241 -17.3075 -15.7654 51.7677 -46.0439 -0.0001 -0.0001 -100.4097 72.6156 -10.2562 29.9909 -0.0000 -0.0000 -0.0000 -0.0000 -0.0000 0.0000 -7.7854 -6.1795 12.5514 18.8787 0.0000 0.0000 -28.0741 8.4837 -20.3968 -43.6080 0.0000 -0.0000 -7.2046 0.5474 -16.4743 18.5238 0.0000 0.0000 -31.6363 22.1028 13.9530 -61.7653 0.0000 -0.0000
 7.5966 -6.9474 9.5284 -6.2219 -82.9302 -100.5454 -4.7172 -2.4330 0.3445 -2.8078 -1.7306 -0.0026 8.5264 -0.0119 1.1625 4.1942 0.2283 0.8205 26.7946 3.4031 -2.1380 0.8625 -2.7703 6.2208 -6.5320 -5.6429 17.5138 -36.0602 -51.6960 20.4361 -0.0001 0.0001 102.7740 67.9463 13.0739 -17.8811 0.0000 0.0000 0.0000 0.0000 -0.0000 -0.0000 -6.2491 10.7253 -17.3132 -15.7481 51.7889 -46.0628 -0.0001 -0.0001 -100.4862 72.8878 -10.1415 30.0471 -0.0000 -0.0000 0.0000 -0.0000 -0.0000 0.0000 -7.8309 -6.2017 12.5572 18.8212 0.0000 0.0000 -27.9377 8.5898 -20.4929 -43.5351 0.0000 -0.0000 -7.2942 0.5367 -16.5240 18.5285 0.0000 0.0000 -31.5276 22.1385 13.9258 -61.7684 0.0000 -0.0000
 7.5868 -6.9447 9.5420 -6.1957 -82.9860 -100.4452 -4.7097 -2.4065 0.3399 -2.7967 -1.7041 -0.0012 8.4958 -0.0718 1.1065 4.1929 0.2056 0.8411 26.8329 3.4194 -2.1874 0.8644 -2.7885 6.2278 -6.5058 -5.6041 17.4740 -36.0837 -51.7326 20.4185 -0.0001 0.0001 102.8543 67.9755 13.0798 -17.8754 0.0000 -0.0000 -0.0000 -0.0000 -0.0000 0.0000 -6.2149 10.7253 -17.3139 -15.7288 51.8137 -46.0867 -0.0001 -0.0001 -100.5628 73.1658 -10.0310 30.1076 -0.0000 -0.0000 -0.0000 -0.0000 0.0000 0.0000 -7.8715 -6.2264 12.5716 18.7598 0.0000 0.0000 -27.8042 8.6908 -20.5884 -43.4693 0.0000 -0.0000 -7.3803 0.5218 -16.5728 18.5316 0.0000 0.0000 -31.4223 22.1756 13.8956 -61.7752 0.0000 -0.0000
 7.5776 -6.9416 9.5562 -6.2087 -83.0580 -100.3845 -4.7218 -2.3726 0.3299 -2.7874 -1.6812 -0.0006 8.4711 -0.1342 1.0526 4.1919 0.1828 0.8630 26.8670 3.4382 -2.2317 0.8640 -2.8091 6.2350 -6.4822 -5.5604 17.4377 -36.1086 -51.7741 20.3966 -0.0001 0.0001 102.9354 68.0049 13.0846 -17.8698 0.0000 -0.0000 0.0000 0.0000 -0.0000 -0.0000 -6.1858 10.7304 -17.3076 -15.7014 51.8365 -46.1181 -0.0001 -0.0001 -100.6364 73.4293 -9.9371 30.1636 0.0000 0.0000 0.0000 -0.0000 0.0000 0.0000 -7.9327 -6.2497 12.5882 18.7034 0.0000 0.0000 -27.6775 8.7834 -20.6804 -43.4083 0.0000 -0.0000 -7.4862 0.5072 -16.6200 18.5370 0.0000 0.0000 -31.3170 22.2157 13.8591 -61.7864 0.0000 -0.0000
 7.5685 -6.9377 9.5696 -6.2073 -83.1262 -100.3203 -4.7305 -2.3437 0.3243 -2.7849 -1.6523 0.0028 8.4527 -0.1996 1.0008 4.1915 0.1612 0.8849 26.9006 3.4563 -2.2706 0.8578 -2.8315 6.2427 -6.4669 -5.5220 17.4057 -36.1282 -51.8118 20.3709 -0.0001 0.0001 103.0167 68.0290 13.0836 -17.8622 -0.0000 -0.0000 -0.0000 -0.0000 -0.0000 0.0000 -6.1577 10.7369 -17.3059 -15.6822 51.8532 -46.1392 -0.0001 -0.0001 -100.7122 73.6584 -9.8564 30.2141 0.0000 -0.0000 -0.0000 0.0000 -0.0000 0.0000 -7.9869 -6.2755 12.6173 18.6439 0.0000 0.0000 -27.5540 8.8674 -20.7700 -43.3528 0.0000 -0.0000 -7.5829 0.4874 -16.6609 18.5365 0.0000 0.0000 -31.2144 22.2568 13.8196 -61.7997 0.0000 -0.0000
 7.5585 -6.9326 9.5794 -6.1213 -83.1539 -100.1890 -4.7083 -2.3194 0.3268 -2.7745 -1.6370 -0.0002 8.4338 -0.2438 0.9605 4.1927 0.1393 0.9027 26.9311 3.4707 -2.3023 0.8480 -2.8551 6.2548 -6.4489 -5.4855 17.3748 -36.1456 -51.8545 20.3534 -0.0001 0.0001 103.0912 68.0522 13.0846 -17.8582 0.0000 0.0000 -0.0000 0.0000 -0.0000 -0.0000 -6.1275 10.7272 -17.2960 -15.6631 51.8803 -46.1667 -0.0001 -0.0001 -100.7820 73.8506 -9.8038 30.2570 0.0000 -0.0000 -0.0000 -0.0000 0.0000 0.0000 -7.9818 -6.3053 12.6669 18.5645 0.0000 0.0000 -27.4302 8.9441 -20.8590 -43.3032 0.0000 -0.0000 -7.6181 0.4573 -16.6912 18.5140 0.0000 0.0000 -31.1137 22.2966 13.7772 -61.8144 0.0000 -0.0000
 7.5502 -6.9277 9.5929 -6.1796 -83.2288 -100.1960 -4.7332 -2.2848 0.3147 -2.7746 -1.6218 0.0026 8.4270 -0.2918 0.9221 4.1946 0.1220 0.9213 26.9588 3.4853 -2.3253 0.8406 -2.8798 6.2670 -6.4425 -5.4562 17.3522 -36.1600 -51.8902 20.3281 -0.0001 0.0001 103.1670 68.0727 13.0818 -17.8537 -0.0000 -0.0000 -0.0000 -0.0000 -0.0000 0.0000 -6.1052 10.7313 -17.2909 -15.6477 51.8888 -46.1870 -0.0001 -0.0001 -100.8497 73.9968 -9.7694 30.2893 -0.0000 0.0000 -0.0000 0.0000 -0.0000 0.0000 -8.0471 -6.3255 12.6970 18.5096 0.0000 0.0000 -27.3200 9.0065 -20.9330 -43.2562 0.0000 -0.0000 -7.7186 0.4374 -16.7267 18.5048 0.0000 0.0000 -31.0082 22.3389 13.7286 -61.8384 0.0000 -0.0000
 7.5409 -6.9217 9.6026 -6.1449 -83.2567 -100.1327 -4.7198 -2.2623 0.3179 -2.7683 -1.6070 0.0001 8.4193 -0.3275 0.8959 4.1985 0.1085 0.9307 26.9842 3.4964 -2.3379 0.8316 -2.9041 6.2844 -6.4402 -5.4324 17.3361 -36.1701 -51.9287 20.3042 -0.0001 0.0001 103.2361 68.0913 13.0815 -17.8507 -0.0000 -0.0000 -0.0000 -0.0000 -0.0000 0.0000 -6.0858 10.7210 -17.2770 -15.6330 51.9036 -46.2090 -0.0001 -0.0001 -100.9112 74.1064 -9.7519 30.3137 0.0000 -0.0000 0.0000 0.0000 0.0000 0.0000 -8.0474 -6.3501 12.7473 18.4371 0.0000 0.0000 -27.2090 9.0610 -21.0037 -43.2171 0.0000 -0.0000 -7.7501 0.4072 -16.7486 18.4738 0.0000 0.0000 -30.9053 22.3772 13.6799 -61.8669 0.0000 -0.0000
 7.5327 -6.9155 9.6140 -6.1832 -83.3033 -100.1416 -4.7274 -2.2370 0.3144 -2.7673 -1.5952 0.0001 8.4189 -0.3568 0.8732 4.2032 0.0989 0.9386 27.0080 3.5057 -2.3425 0.8254 -2.9286 6.3038 -6.4425 -5.4177 17.3261 -36.1774 -51.9598 20.2811 -0.0001 0.0001 103.3023 68.1083 13.0797 -17.8527 -0.0000 -0.0000 -0.0000 -0.0000 -0.0000 -0.0000 -6.0699 10.7144 -17.2685 -15.6276 51.9052 -46.2215 -0.0001 -0.0001 -100.9684 74.1883 -9.7435 30.3326 -0.0000 0.0000 -0.0000 0.0000 -0.0000 0.0000 -8.0789 -6.3687 12.7820 18.3789 0.0000 0.0000 -27.1074 9.1034 -21.0600 -43.1844 0.0000 -0.0000 -7.8083 0.3824 -16.7731 18.4490 0.0000 0.0000 -30.7999 22.4146 13.6282 -61.9072 0.0000 -0.0000
